<svg width="30" height="30" viewBox="0 0 30 30" fill="none" xmlns="http://www.w3.org/2000/svg">
<path d="M22.5 3.75C23.4946 3.75 24.4484 4.14509 25.1517 4.84835C25.8549 5.55161 26.25 6.50544 26.25 7.5V10.1787C26.25 10.5962 26.25 10.805 26.1538 10.9575C26.1039 11.0368 26.0368 11.1039 25.9575 11.1538C25.805 11.25 25.5962 11.25 25.1787 11.25H18.75M22.5 3.75C21.5054 3.75 20.5516 4.14509 19.8483 4.84835C19.1451 5.55161 18.75 6.50544 18.75 7.5V11.25M22.5 3.75H8.75C6.3925 3.75 5.215 3.75 4.4825 4.4825C3.75 5.215 3.75 6.3925 3.75 8.75V26.25L7.5 25L11.25 26.25L15 25L18.75 26.25V11.25" stroke="#F8F8F8"/>
<path d="M8.75 8.75H13.75M10 13.75H8.75M8.75 18.75H12.5" stroke="#F8F8F8" stroke-linecap="round"/>
</svg>
