<svg width="16" height="18" viewBox="0 0 16 18" fill="none" xmlns="http://www.w3.org/2000/svg">
<path d="M6.5 3.16667H9.5C9.5 2.72464 9.34196 2.30072 9.06066 1.98816C8.77936 1.67559 8.39782 1.5 8 1.5C7.60218 1.5 7.22064 1.67559 6.93934 1.98816C6.65804 2.30072 6.5 2.72464 6.5 3.16667ZM5.375 3.16667C5.375 2.78364 5.4429 2.40437 5.57482 2.05051C5.70673 1.69664 5.90009 1.37511 6.14384 1.10427C6.3876 0.833434 6.67698 0.618594 6.99546 0.472018C7.31394 0.325442 7.65528 0.25 8 0.25C8.34472 0.25 8.68606 0.325442 9.00454 0.472018C9.32302 0.618594 9.6124 0.833434 9.85616 1.10427C10.0999 1.37511 10.2933 1.69664 10.4252 2.05051C10.5571 2.40437 10.625 2.78364 10.625 3.16667H14.9375C15.0867 3.16667 15.2298 3.23251 15.3352 3.34973C15.4407 3.46694 15.5 3.62591 15.5 3.79167C15.5 3.95743 15.4407 4.1164 15.3352 4.23361C15.2298 4.35082 15.0867 4.41667 14.9375 4.41667H13.9475L13.07 14.5092C13.0027 15.2825 12.6785 16.0002 12.1608 16.5224C11.643 17.0445 10.9687 17.3336 10.2695 17.3333H5.7305C5.0314 17.3334 4.35733 17.0442 3.83971 16.5221C3.3221 15.9999 2.99805 15.2823 2.93075 14.5092L2.0525 4.41667H1.0625C0.913316 4.41667 0.770242 4.35082 0.664752 4.23361C0.559263 4.1164 0.5 3.95743 0.5 3.79167C0.5 3.62591 0.559263 3.46694 0.664752 3.34973C0.770242 3.23251 0.913316 3.16667 1.0625 3.16667H5.375ZM6.875 7.125C6.875 6.95924 6.81574 6.80027 6.71025 6.68306C6.60476 6.56585 6.46168 6.5 6.3125 6.5C6.16332 6.5 6.02024 6.56585 5.91475 6.68306C5.80926 6.80027 5.75 6.95924 5.75 7.125V13.375C5.75 13.5408 5.80926 13.6997 5.91475 13.8169C6.02024 13.9342 6.16332 14 6.3125 14C6.46168 14 6.60476 13.9342 6.71025 13.8169C6.81574 13.6997 6.875 13.5408 6.875 13.375V7.125ZM9.6875 6.5C9.83668 6.5 9.97976 6.56585 10.0852 6.68306C10.1907 6.80027 10.25 6.95924 10.25 7.125V13.375C10.25 13.5408 10.1907 13.6997 10.0852 13.8169C9.97976 13.9342 9.83668 14 9.6875 14C9.53832 14 9.39524 13.9342 9.28975 13.8169C9.18426 13.6997 9.125 13.5408 9.125 13.375V7.125C9.125 6.95924 9.18426 6.80027 9.28975 6.68306C9.39524 6.56585 9.53832 6.5 9.6875 6.5ZM4.0505 14.3892C4.09095 14.853 4.28543 15.2835 4.59603 15.5968C4.90662 15.91 5.31106 16.0834 5.7305 16.0833H10.2695C10.6889 16.0834 11.0934 15.91 11.404 15.5968C11.7146 15.2835 11.909 14.853 11.9495 14.3892L12.818 4.41667H3.182L4.0505 14.3892Z" fill="#C70000"/>
</svg>
