<svg width="22" height="22" viewBox="0 0 22 22" fill="none" xmlns="http://www.w3.org/2000/svg">
<path d="M21.2712 10.7662C20.4626 8.67463 19.0588 6.8658 17.2334 5.56331C15.4079 4.26082 13.2408 3.52177 11 3.4375C8.75906 3.52177 6.59197 4.26082 4.76653 5.56331C2.94109 6.8658 1.53731 8.67463 0.728702 10.7662C0.674092 10.9173 0.674092 11.0827 0.728702 11.2338C1.53731 13.3254 2.94109 15.1342 4.76653 16.4367C6.59197 17.7392 8.75906 18.4782 11 18.5625C13.2408 18.4782 15.4079 17.7392 17.2334 16.4367C19.0588 15.1342 20.4626 13.3254 21.2712 11.2338C21.3258 11.0827 21.3258 10.9173 21.2712 10.7662ZM11 17.1875C7.3562 17.1875 3.5062 14.4856 2.11058 11C3.5062 7.51437 7.3562 4.8125 11 4.8125C14.6437 4.8125 18.4937 7.51437 19.8893 11C18.4937 14.4856 14.6437 17.1875 11 17.1875Z" fill="#F8F8F8"/>
<path d="M11 6.875C10.1842 6.875 9.38663 7.11693 8.70827 7.57019C8.02992 8.02345 7.50121 8.66769 7.189 9.42143C6.87679 10.1752 6.7951 11.0046 6.95426 11.8047C7.11343 12.6049 7.50629 13.3399 8.08319 13.9168C8.66008 14.4937 9.39508 14.8866 10.1953 15.0457C10.9954 15.2049 11.8248 15.1232 12.5786 14.811C13.3323 14.4988 13.9766 13.9701 14.4298 13.2917C14.8831 12.6134 15.125 11.8158 15.125 11C15.125 9.90598 14.6904 8.85677 13.9168 8.08318C13.1432 7.3096 12.094 6.875 11 6.875ZM11 13.75C10.4561 13.75 9.92442 13.5887 9.47218 13.2865C9.01995 12.9844 8.66747 12.5549 8.45933 12.0524C8.25119 11.5499 8.19673 10.9969 8.30284 10.4635C8.40895 9.93005 8.67086 9.44005 9.05546 9.05546C9.44005 8.67086 9.93006 8.40895 10.4635 8.30284C10.997 8.19673 11.5499 8.25119 12.0524 8.45933C12.5549 8.66747 12.9844 9.01995 13.2865 9.47218C13.5887 9.92442 13.75 10.4561 13.75 11C13.75 11.7293 13.4603 12.4288 12.9445 12.9445C12.4288 13.4603 11.7293 13.75 11 13.75Z" fill="#F8F8F8"/>
</svg>
