<svg width="20" height="20" viewBox="0 0 20 20" fill="none" xmlns="http://www.w3.org/2000/svg">
<path d="M17.226 0C18.206 0 19 0.814 19 1.818V18.182C19 19.186 18.206 20 17.226 20H4.54205C3.56205 20 2.76805 19.186 2.76805 18.182L2.76705 16.496H1.66505C1.48681 16.4936 1.31678 16.4207 1.19215 16.2933C1.06752 16.1659 0.998446 15.9942 1.00005 15.816C1.00005 15.439 1.29805 15.134 1.66505 15.134H2.76705V12.715H1.66505C1.48646 12.7126 1.31612 12.6395 1.19143 12.5116C1.06675 12.3837 0.997913 12.2116 1.00005 12.033C1.00005 11.656 1.29805 11.351 1.66505 11.351L2.76705 11.35V8.919H1.66505C1.48681 8.91663 1.31678 8.84375 1.19215 8.71631C1.06752 8.58887 0.998446 8.41724 1.00005 8.239C1.00005 7.862 1.29805 7.557 1.66505 7.557L2.76705 7.556V5.122H1.66505C1.48664 5.11963 1.31645 5.04661 1.19179 4.91895C1.06713 4.79129 0.998179 4.61942 1.00005 4.441C1.00005 4.064 1.29805 3.759 1.66505 3.759L2.76705 3.758L2.76805 1.818C2.76805 0.814 3.56205 0 4.54205 0H17.226ZM13.978 1.364H4.46605C4.41916 1.36585 4.37315 1.37728 4.33085 1.39757C4.28854 1.41786 4.25084 1.44659 4.22005 1.482C4.1497 1.55439 4.10719 1.64931 4.10005 1.75V3.758H4.94405C5.03279 3.75838 5.12058 3.77643 5.20227 3.81111C5.28396 3.8458 5.35792 3.89641 5.41983 3.96C5.48174 4.02358 5.53036 4.09887 5.56285 4.18145C5.59534 4.26404 5.61104 4.35227 5.60905 4.441C5.61092 4.61942 5.54196 4.79129 5.41731 4.91895C5.29265 5.04661 5.12246 5.11963 4.94405 5.122H4.10005V7.553H4.97305L5.01805 7.56L4.94405 7.556C5.05345 7.5559 5.16111 7.58342 5.25705 7.636L5.27705 7.647C5.32325 7.6742 5.36506 7.70826 5.40105 7.748L5.34605 7.695C5.42371 7.75598 5.48726 7.83304 5.53231 7.92091C5.57736 8.00877 5.60286 8.10535 5.60705 8.204L5.60005 8.124C5.61651 8.21558 5.61388 8.30957 5.59234 8.40008C5.57079 8.4906 5.5308 8.57569 5.47485 8.65004C5.4189 8.72438 5.34821 8.78638 5.2672 8.83214C5.18619 8.87791 5.0966 8.90646 5.00405 8.916L4.97405 8.918L4.95805 8.919H4.10005V11.35H4.94405C5.05159 11.3501 5.15741 11.3769 5.25205 11.428C5.31405 11.458 5.36305 11.494 5.40205 11.539L5.37205 11.51C5.4697 11.5941 5.54174 11.7039 5.57994 11.827C5.61813 11.9501 5.62094 12.0814 5.58805 12.206L5.57905 12.236C5.53198 12.3921 5.43051 12.5262 5.29305 12.614L5.28305 12.619C5.18107 12.6815 5.06368 12.7144 4.94405 12.714H4.10005V15.133H4.97305C4.98105 15.133 4.98905 15.135 4.99605 15.137L4.94405 15.133C5.31105 15.133 5.60905 15.438 5.60905 15.815C5.60905 16.037 5.50505 16.235 5.34405 16.359L5.33105 16.369C5.31135 16.3838 5.29063 16.3971 5.26905 16.409L5.26105 16.413C5.17694 16.4612 5.08282 16.4893 4.98605 16.495H4.97305L4.95805 16.497H4.94405L4.10005 16.496V18.26C4.10605 18.327 4.13005 18.39 4.17205 18.45L4.22005 18.508C4.29305 18.585 4.38305 18.628 4.49005 18.638H13.978V1.364ZM17.242 1.362H15.304V18.636H17.278C17.369 18.636 17.454 18.594 17.534 18.506C17.6064 18.4338 17.6534 18.3401 17.668 18.239V1.794C17.6591 1.68218 17.6118 1.57689 17.534 1.496C17.4967 1.45538 17.4517 1.42261 17.4015 1.3996C17.3514 1.37659 17.2972 1.36381 17.242 1.362Z" fill="white"/>
</svg>
