<svg width="28" height="28" viewBox="0 0 28 28" fill="none" xmlns="http://www.w3.org/2000/svg">
<g clip-path="url(#clip0_72_387)">
<path d="M20.8547 10.5C20.409 7.90986 19.0083 5.58098 16.9293 3.97309C14.8504 2.36519 12.2442 1.59511 9.62515 1.81488C7.00615 2.03465 4.56471 3.2283 2.78277 5.16018C1.00084 7.09206 0.00791079 9.62179 1.23512e-07 12.25C-0.000234092 13.7771 0.332641 15.2859 0.975415 16.6711C1.61819 18.0564 2.55539 19.2847 3.72166 20.2706C4.88794 21.2564 6.25522 21.976 7.72816 22.3791C9.2011 22.7823 10.7442 22.8592 12.25 22.6047V20.825C10.5544 21.1707 8.79446 21.0058 7.19257 20.3513C5.59068 19.6968 4.21883 18.5821 3.25045 17.1479C2.28208 15.7138 1.76068 14.0248 1.75217 12.2944C1.74366 10.564 2.24843 8.86987 3.20265 7.42631C4.15687 5.98274 5.51769 4.85453 7.11307 4.1843C8.70844 3.51408 10.4667 3.33195 12.1656 3.66094C13.8645 3.98992 15.4277 4.81525 16.6575 6.03258C17.8874 7.24991 18.7286 8.80456 19.075 10.5H20.8547ZM13.51 12.3375C13.39 12.2792 13.2583 12.2493 13.125 12.25H10.5035V7.87498L10.4878 7.71748C10.4468 7.50433 10.3281 7.314 10.1547 7.18348C9.98124 7.05295 9.76549 6.99154 9.54933 7.01117C9.33316 7.0308 9.13201 7.13007 8.98494 7.28971C8.83787 7.44934 8.75539 7.65794 8.7535 7.87498V13.125L8.7675 13.2825C8.80436 13.4839 8.91072 13.6661 9.06805 13.7972C9.22538 13.9283 9.42371 14.0001 9.6285 14H12.5475C12.7645 13.3857 13.0935 12.824 13.51 12.3375ZM24.5 12.25H17.5C16.5717 12.25 15.6815 12.6187 15.0251 13.2751C14.3688 13.9315 14 14.8217 14 15.75V24.5C14 25.4282 14.3688 26.3185 15.0251 26.9749C15.6815 27.6312 16.5717 28 17.5 28H24.5C25.4283 28 26.3185 27.6312 26.9749 26.9749C27.6312 26.3185 28 25.4282 28 24.5V15.75C28 14.8217 27.6312 13.9315 26.9749 13.2751C26.3185 12.6187 25.4283 12.25 24.5 12.25ZM23.625 24.5H18.375C18.1429 24.5 17.9204 24.4078 17.7563 24.2437C17.5922 24.0796 17.5 23.857 17.5 23.625C17.5 23.3929 17.5922 23.1704 17.7563 23.0063C17.9204 22.8422 18.1429 22.75 18.375 22.75H23.625C23.8571 22.75 24.0796 22.8422 24.2437 23.0063C24.4078 23.1704 24.5 23.3929 24.5 23.625C24.5 23.857 24.4078 24.0796 24.2437 24.2437C24.0796 24.4078 23.8571 24.5 23.625 24.5ZM23.625 21H18.375C18.1429 21 17.9204 20.9078 17.7563 20.7437C17.5922 20.5796 17.5 20.357 17.5 20.125C17.5 19.8929 17.5922 19.6704 17.7563 19.5063C17.9204 19.3422 18.1429 19.25 18.375 19.25H23.625C23.8571 19.25 24.0796 19.3422 24.2437 19.5063C24.4078 19.6704 24.5 19.8929 24.5 20.125C24.5 20.357 24.4078 20.5796 24.2437 20.7437C24.0796 20.9078 23.8571 21 23.625 21ZM23.625 17.5H18.375C18.1429 17.5 17.9204 17.4078 17.7563 17.2437C17.5922 17.0796 17.5 16.857 17.5 16.625C17.5 16.3929 17.5922 16.1704 17.7563 16.0063C17.9204 15.8422 18.1429 15.75 18.375 15.75H23.625C23.8571 15.75 24.0796 15.8422 24.2437 16.0063C24.4078 16.1704 24.5 16.3929 24.5 16.625C24.5 16.857 24.4078 17.0796 24.2437 17.2437C24.0796 17.4078 23.8571 17.5 23.625 17.5Z" fill="#F8F8F8"/>
</g>
<defs>
<clipPath id="clip0_72_387">
<rect width="28" height="28" fill="white"/>
</clipPath>
</defs>
</svg>
