<svg width="37" height="37" viewBox="0 0 37 37" fill="none" xmlns="http://www.w3.org/2000/svg">
<path fill-rule="evenodd" clip-rule="evenodd" d="M18.5 6.16659C17.6822 6.16659 16.898 6.49144 16.3197 7.06967C15.7415 7.64791 15.4166 8.43217 15.4166 9.24992H21.5833C21.5833 8.43217 21.2584 7.64791 20.6802 7.06967C20.102 6.49144 19.3177 6.16659 18.5 6.16659ZM14.4207 4.62492C15.5076 3.666 16.9367 3.08325 18.5 3.08325C20.0632 3.08325 21.4908 3.666 22.5792 4.62492H27.75C28.5677 4.62492 29.352 4.94977 29.9302 5.52801C30.5084 6.10624 30.8333 6.8905 30.8333 7.70825V30.8333C30.8333 31.651 30.5084 32.4353 29.9302 33.0135C29.352 33.5917 28.5677 33.9166 27.75 33.9166H9.24996C8.43221 33.9166 7.64795 33.5917 7.06971 33.0135C6.49148 32.4353 6.16663 31.651 6.16663 30.8333V7.70825C6.16663 6.8905 6.49148 6.10624 7.06971 5.52801C7.64795 4.94977 8.43221 4.62492 9.24996 4.62492H14.4207ZM12.5275 7.70825H9.24996V30.8333H27.75V7.70825H24.4724C24.5988 8.20159 24.6666 8.71804 24.6666 9.24992V10.7916C24.6666 11.2005 24.5042 11.5926 24.2151 11.8817C23.926 12.1708 23.5338 12.3333 23.125 12.3333H13.875C13.4661 12.3333 13.074 12.1708 12.7848 11.8817C12.4957 11.5926 12.3333 11.2005 12.3333 10.7916V9.24992C12.3333 8.71804 12.4011 8.20159 12.5275 7.70825ZM12.3333 16.9583C12.3333 16.5494 12.4957 16.1572 12.7848 15.8681C13.074 15.579 13.4661 15.4166 13.875 15.4166H23.125C23.5338 15.4166 23.926 15.579 24.2151 15.8681C24.5042 16.1572 24.6666 16.5494 24.6666 16.9583C24.6666 17.3671 24.5042 17.7593 24.2151 18.0484C23.926 18.3375 23.5338 18.4999 23.125 18.4999H13.875C13.4661 18.4999 13.074 18.3375 12.7848 18.0484C12.4957 17.7593 12.3333 17.3671 12.3333 16.9583ZM12.3333 23.1249C12.3333 22.716 12.4957 22.3239 12.7848 22.0348C13.074 21.7457 13.4661 21.5833 13.875 21.5833H18.5C18.9088 21.5833 19.301 21.7457 19.5901 22.0348C19.8792 22.3239 20.0416 22.716 20.0416 23.1249C20.0416 23.5338 19.8792 23.9259 19.5901 24.215C19.301 24.5042 18.9088 24.6666 18.5 24.6666H13.875C13.4661 24.6666 13.074 24.5042 12.7848 24.215C12.4957 23.9259 12.3333 23.5338 12.3333 23.1249Z" fill="white"/>
</svg>
