<?xml version="1.0" encoding="UTF-8"?>
<!DOCTYPE svg PUBLIC "-//W3C//DTD SVG 1.1//EN" "http://www.w3.org/Graphics/SVG/1.1/DTD/svg11.dtd">
<!-- Creator: CorelDRAW X6 -->
<svg xmlns="http://www.w3.org/2000/svg" xml:space="preserve" width="3.236in" height="1.608in" version="1.1" style="shape-rendering:geometricPrecision; text-rendering:geometricPrecision; image-rendering:optimizeQuality; fill-rule:evenodd; clip-rule:evenodd"
viewBox="0 0 3236 1608"
 xmlns:xlink="http://www.w3.org/1999/xlink">
 <defs>
  <style type="text/css">
   <![CDATA[
    .fil1 {fill:#4B4B4D;fill-rule:nonzero}
    .fil0 {fill:#171761;fill-rule:nonzero}
   ]]>
  </style>
 </defs>
 <g id="Layer_x0020_1">
  <metadata id="CorelCorpID_0Corel-Layer"/>
  <g id="_350504840">
   <path class="fil0" d="M1145 464c143,0 251,26 325,79 74,53 111,132 111,239 0,59 -9,112 -28,160 -19,48 -48,87 -89,120 -41,32 -92,57 -156,75 -63,17 -139,26 -227,26l-1083 0 231 -299 879 0c43,0 74,-7 94,-20 20,-13 30,-35 30,-65 0,-30 -10,-52 -30,-64 -20,-13 -51,-19 -94,-19l-633 0c-75,0 -140,-8 -195,-24 -54,-16 -100,-39 -136,-68 -36,-29 -63,-64 -80,-105 -17,-41 -26,-87 -26,-136 0,-54 10,-104 29,-149 19,-45 49,-83 89,-114 40,-31 92,-56 155,-73 63,-17 139,-26 227,-26l1465 0 -231 302 -1262 0c-42,0 -73,6 -93,17 -20,12 -30,32 -30,63 0,30 10,51 30,63 20,12 51,18 93,18l633 0zm1908 101c51,15 94,45 129,89 35,44 53,101 53,170 0,49 -8,94 -23,135 -15,41 -41,77 -76,107 -36,30 -84,54 -145,71 -61,17 -137,26 -229,26l-1022 0 0 -707 1029 0c27,0 50,-6 70,-17 20,-11 30,-32 30,-62 0,-29 -10,-49 -31,-59 -21,-10 -44,-16 -70,-16l-1029 0 243 -302 770 0c70,0 132,7 189,20 56,13 104,34 144,61 40,27 71,61 92,101 21,40 32,87 32,140 0,35 -5,65 -14,92 -9,27 -21,50 -36,70 -14,20 -31,37 -50,50 -19,13 -39,23 -58,30zm-951 139l0 160 662 0c39,0 68,-7 85,-21 17,-14 26,-34 26,-61 0,-25 -9,-45 -26,-58 -17,-13 -46,-20 -85,-20l-662 0z"/>
   <path class="fil1" d="M7 1597c-2,-32 -4,-57 -7,-76 17,7 32,13 45,15 13,3 25,4 35,4 13,0 24,-2 31,-6 8,-4 12,-9 12,-17 0,-3 0,-5 -1,-7 -1,-2 -2,-5 -4,-8 -2,-3 -5,-6 -9,-9l-43 -37c-10,-8 -17,-14 -21,-18 -8,-8 -14,-15 -19,-21 -4,-7 -8,-13 -10,-20 -2,-7 -3,-14 -3,-22 0,-9 2,-18 5,-27 3,-9 8,-17 15,-25 6,-8 15,-14 26,-20 11,-6 22,-9 34,-11 12,-2 25,-3 38,-3 25,0 53,3 83,9 0,10 1,20 2,28 1,9 2,24 4,45 -14,-6 -27,-9 -38,-11 -11,-2 -21,-3 -30,-3 -12,0 -22,2 -29,7 -8,4 -12,10 -12,16 0,3 1,6 2,9 1,3 3,6 7,10 3,4 8,8 13,13 5,5 14,11 26,20l16 13c5,4 10,9 16,14 6,6 10,11 14,16 4,5 7,10 9,15 2,4 4,9 5,14 1,5 2,9 2,15 0,13 -3,26 -10,38 -6,12 -16,22 -27,30 -12,8 -25,13 -39,16 -14,3 -29,5 -45,5 -24,0 -55,-4 -92,-11zm252 5l6 -45 14 -157 7 -104c28,0 49,0 65,0 13,0 33,0 60,0 2,13 4,23 5,29 1,7 5,20 10,39 5,19 10,36 13,50 3,14 8,38 14,73 7,-24 13,-44 18,-61 5,-17 12,-36 20,-58 8,-22 13,-36 15,-42 2,-7 5,-17 9,-31 23,0 45,0 66,0 15,0 35,0 61,0 -3,50 -5,94 -6,130 -2,71 -3,120 -3,146 0,6 0,16 0,30 -20,0 -34,0 -42,0 -12,0 -26,0 -43,0 1,-13 3,-46 4,-96 2,-51 3,-83 3,-97 0,-6 0,-15 0,-26l-29 91 -42 128c-19,0 -33,0 -40,0 -9,0 -23,0 -43,0l-28 -124 -16 -66c-1,-3 -1,-6 -2,-9 -1,-4 -2,-10 -4,-20l-6 62 -7 128 -1 29c-21,0 -34,0 -40,0 -8,0 -21,0 -40,0zm388 0l19 -32 116 -219 12 -24c4,-7 9,-18 15,-31 26,0 46,0 58,0 21,0 41,0 59,0l33 94 67 180 13 33c-26,0 -42,0 -47,0 -13,0 -31,0 -55,0 -7,-25 -16,-54 -29,-87l-113 0c-13,26 -26,56 -40,87 -28,0 -45,0 -51,0 -11,0 -30,0 -55,0zm174 -153l70 0c-17,-53 -27,-82 -29,-87 -10,22 -18,40 -25,54l-16 33zm240 153c3,-26 5,-50 7,-71 2,-21 3,-46 4,-73 1,-28 2,-57 3,-88 1,-31 1,-56 1,-74 19,0 34,1 45,1 12,0 27,0 44,-1 17,-1 34,-1 50,-1 19,0 36,1 51,2 11,1 21,3 31,7 9,3 17,7 23,12 6,5 12,10 16,16 4,6 7,13 10,21 2,8 3,16 3,25 0,10 -1,19 -4,28 -3,9 -7,17 -12,25 -5,8 -12,14 -21,20 -8,6 -20,11 -35,17l12 29c3,8 7,16 11,24l30 66c1,3 4,8 7,17 -25,0 -41,0 -50,0 -11,0 -28,0 -53,0 -2,-8 -7,-22 -13,-43 -3,-9 -5,-16 -7,-20 -4,-11 -9,-26 -16,-45l-23 -64c8,2 16,2 24,2 11,0 21,-2 30,-5 9,-3 16,-8 20,-15 5,-7 7,-14 7,-22 0,-6 -2,-12 -5,-17 -3,-5 -9,-8 -16,-11 -7,-2 -19,-4 -34,-4 -5,0 -11,0 -16,0 -6,0 -12,0 -20,1 -2,31 -4,68 -5,112 -2,44 -3,87 -3,130 -25,0 -41,0 -49,0 -9,0 -24,0 -47,0zm391 0c7,-73 12,-153 13,-240l-96 2 1 -25c1,-13 1,-28 1,-44 43,0 92,0 149,0l55 0 54 0 29 0 -1 22c-1,12 -1,22 -1,29 0,8 0,13 0,17 -32,-2 -58,-2 -79,-2l-16 0c-2,26 -4,51 -5,73 -2,32 -3,63 -4,94 -1,30 -1,55 -1,73 -25,0 -40,0 -47,0 -6,0 -24,0 -51,0zm340 0c3,-33 5,-59 6,-78 2,-26 3,-61 4,-106 1,-45 2,-77 2,-95 0,-7 0,-16 0,-28 20,0 36,1 47,1 16,0 35,0 57,-1 22,-1 40,-1 56,-1 19,0 32,1 40,2 10,1 20,4 28,7 8,3 14,8 20,13 6,6 10,13 14,22 4,10 6,20 6,31 0,9 -1,17 -3,24 -2,8 -5,15 -9,21 -4,6 -8,11 -13,15 -5,4 -10,7 -14,9 -5,2 -11,5 -19,7 8,1 14,3 19,5 5,2 10,5 15,8 5,4 10,9 15,15 4,6 8,13 10,20 2,7 3,15 3,24 0,11 -2,22 -6,32 -4,10 -9,19 -16,26 -6,6 -13,11 -22,16 -9,4 -18,7 -28,9 -8,1 -22,2 -43,3 -21,1 -42,1 -65,1l-59 0 -44 0zm100 -187l32 0c10,0 18,0 22,-1 4,-1 9,-1 13,-3 4,-1 8,-4 11,-7 3,-3 5,-7 6,-11 1,-4 2,-8 2,-12 0,-6 -1,-10 -4,-15 -3,-4 -7,-8 -13,-10 -6,-2 -15,-3 -27,-3l-40 0 -3 60zm-5 125l43 0c11,0 20,-1 25,-2 7,-2 12,-4 15,-7 3,-3 6,-6 8,-11 2,-5 3,-10 3,-15 0,-5 -1,-9 -2,-13 -2,-4 -4,-7 -7,-9 -3,-3 -7,-4 -12,-6 -5,-1 -12,-2 -22,-2l-47 0 -3 65zm243 -245c23,0 40,0 49,0 12,0 28,0 48,0l-7 96c-1,18 -2,35 -3,51 -1,16 -1,27 -1,33 0,11 1,21 3,29 2,8 5,14 9,19 4,5 10,9 18,12 8,3 16,4 24,4 7,0 14,-1 20,-3 5,-2 9,-4 13,-7 3,-3 7,-6 9,-9 3,-4 6,-10 8,-16 2,-6 4,-14 5,-24 1,-10 3,-32 5,-67 2,-30 3,-57 4,-81 1,-24 2,-36 2,-36 23,0 40,0 53,0l46 0 -11 160c0,3 0,5 0,7 -1,31 -3,53 -6,66 -3,13 -9,24 -16,33 -8,9 -18,18 -33,26 -14,8 -31,13 -49,16 -18,3 -37,5 -56,5 -17,0 -33,-1 -48,-4 -14,-2 -27,-6 -39,-10 -11,-5 -22,-10 -30,-16 -8,-6 -14,-11 -18,-17 -4,-6 -8,-13 -10,-21 -3,-9 -4,-19 -4,-30 0,-4 0,-9 0,-16 0,-7 1,-18 2,-31l3 -36c1,-9 2,-23 2,-42l4 -89zm345 307c9,-120 13,-213 13,-278l0 -29c26,0 44,0 52,0 4,0 20,0 48,0 -3,34 -5,66 -7,96 -2,42 -4,81 -5,118 -1,36 -1,68 -1,93l-46 0c-9,0 -27,0 -55,0zm154 0c4,-35 6,-64 8,-86 3,-41 5,-81 7,-121 2,-40 2,-73 2,-99 20,0 38,0 54,0 11,0 26,0 46,0l-5 81 -7 127 -1 31c26,0 43,1 50,1 39,0 69,-1 90,-2l-5 68c-39,0 -77,0 -112,0 -48,0 -90,0 -127,0zm272 0c3,-34 6,-61 7,-82 2,-31 4,-70 6,-119 1,-37 2,-64 2,-80l0 -26c17,0 33,1 45,1 12,0 28,0 48,-1 20,-1 39,-1 56,-1 20,0 38,1 53,4 15,2 29,7 42,15 13,8 24,17 33,29 9,12 16,26 20,43 5,16 7,33 7,50 0,17 -2,33 -5,49 -4,16 -9,30 -15,42 -6,13 -14,23 -23,32 -9,9 -18,17 -29,23 -8,5 -17,9 -25,11 -8,3 -20,5 -34,7 -16,2 -34,3 -55,3l-91 -1c-9,0 -22,0 -41,1zm97 -68c8,1 17,1 26,1 15,0 29,-1 41,-4 12,-3 22,-8 31,-17 9,-9 16,-20 20,-34 4,-14 7,-28 7,-43 0,-18 -3,-33 -10,-45 -6,-12 -15,-21 -26,-25 -11,-5 -25,-7 -44,-7 -11,0 -23,0 -38,1l-8 173z"/>
  </g>
 </g>
</svg>
